<svg width="800" height="150" xmlns="http://www.w3.org/2000/svg">
    <style>
        .dot { animation: bounce 2s infinite ease-in-out; }
        @keyframes bounce { 
            0%, 100% { transform: translateY(0); fill: #00ffff; r: 3; opacity: 0.5; } 
            50% { transform: translateY(20px); fill: #ff0055; r: 5; opacity: 1; } 
        }
    </style>
    <rect width="800" height="150" fill="#0a0e17" /><line x1="0" y1="75.0" x2="800" y2="75.0" stroke="#1a1f35" stroke-width="2" /><circle cx="0.0" cy="55.0" r="3" fill="#00ffff" class="dot" style="animation-delay: -0.0s" /><circle cx="0.0" cy="95.0" r="3" fill="#9d4edd" class="dot" style="animation-delay: -1.0s; animation-direction: reverse;" /><circle cx="20.0" cy="55.0" r="3" fill="#00ffff" class="dot" style="animation-delay: -0.1s" /><circle cx="20.0" cy="95.0" r="3" fill="#9d4edd" class="dot" style="animation-delay: -1.1s; animation-direction: reverse;" /><circle cx="40.0" cy="55.0" r="3" fill="#00ffff" class="dot" style="animation-delay: -0.2s" /><circle cx="40.0" cy="95.0" r="3" fill="#9d4edd" class="dot" style="animation-delay: -1.2s; animation-direction: reverse;" /><circle cx="60.0" cy="55.0" r="3" fill="#00ffff" class="dot" style="animation-delay: -0.30000000000000004s" /><circle cx="60.0" cy="95.0" r="3" fill="#9d4edd" class="dot" style="animation-delay: -1.3s; animation-direction: reverse;" /><circle cx="80.0" cy="55.0" r="3" fill="#00ffff" class="dot" style="animation-delay: -0.4s" /><circle cx="80.0" cy="95.0" r="3" fill="#9d4edd" class="dot" style="animation-delay: -1.4s; animation-direction: reverse;" /><circle cx="100.0" cy="55.0" r="3" fill="#00ffff" class="dot" style="animation-delay: -0.5s" /><circle cx="100.0" cy="95.0" r="3" fill="#9d4edd" class="dot" style="animation-delay: -1.5s; animation-direction: reverse;" /><circle cx="120.0" cy="55.0" r="3" fill="#00ffff" class="dot" style="animation-delay: -0.6000000000000001s" /><circle cx="120.0" cy="95.0" r="3" fill="#9d4edd" class="dot" style="animation-delay: -1.6s; animation-direction: reverse;" /><circle cx="140.0" cy="55.0" r="3" fill="#00ffff" class="dot" style="animation-delay: -0.7000000000000001s" /><circle cx="140.0" cy="95.0" r="3" fill="#9d4edd" class="dot" style="animation-delay: -1.7000000000000002s; animation-direction: reverse;" /><circle cx="160.0" cy="55.0" r="3" fill="#00ffff" class="dot" style="animation-delay: -0.8s" /><circle cx="160.0" cy="95.0" r="3" fill="#9d4edd" class="dot" style="animation-delay: -1.8s; animation-direction: reverse;" /><circle cx="180.0" cy="55.0" r="3" fill="#00ffff" class="dot" style="animation-delay: -0.9s" /><circle cx="180.0" cy="95.0" r="3" fill="#9d4edd" class="dot" style="animation-delay: -1.9s; animation-direction: reverse;" /><circle cx="200.0" cy="55.0" r="3" fill="#00ffff" class="dot" style="animation-delay: -1.0s" /><circle cx="200.0" cy="95.0" r="3" fill="#9d4edd" class="dot" style="animation-delay: -2.0s; animation-direction: reverse;" /><circle cx="220.0" cy="55.0" r="3" fill="#00ffff" class="dot" style="animation-delay: -1.1s" /><circle cx="220.0" cy="95.0" r="3" fill="#9d4edd" class="dot" style="animation-delay: -2.1s; animation-direction: reverse;" /><circle cx="240.0" cy="55.0" r="3" fill="#00ffff" class="dot" style="animation-delay: -1.2000000000000002s" /><circle cx="240.0" cy="95.0" r="3" fill="#9d4edd" class="dot" style="animation-delay: -2.2s; animation-direction: reverse;" /><circle cx="260.0" cy="55.0" r="3" fill="#00ffff" class="dot" style="animation-delay: -1.3s" /><circle cx="260.0" cy="95.0" r="3" fill="#9d4edd" class="dot" style="animation-delay: -2.3s; animation-direction: reverse;" /><circle cx="280.0" cy="55.0" r="3" fill="#00ffff" class="dot" style="animation-delay: -1.4000000000000001s" /><circle cx="280.0" cy="95.0" r="3" fill="#9d4edd" class="dot" style="animation-delay: -2.4000000000000004s; animation-direction: reverse;" /><circle cx="300.0" cy="55.0" r="3" fill="#00ffff" class="dot" style="animation-delay: -1.5s" /><circle cx="300.0" cy="95.0" r="3" fill="#9d4edd" class="dot" style="animation-delay: -2.5s; animation-direction: reverse;" /><circle cx="320.0" cy="55.0" r="3" fill="#00ffff" class="dot" style="animation-delay: -1.6s" /><circle cx="320.0" cy="95.0" r="3" fill="#9d4edd" class="dot" style="animation-delay: -2.6s; animation-direction: reverse;" /><circle cx="340.0" cy="55.0" r="3" fill="#00ffff" class="dot" style="animation-delay: -1.7000000000000002s" /><circle cx="340.0" cy="95.0" r="3" fill="#9d4edd" class="dot" style="animation-delay: -2.7s; animation-direction: reverse;" /><circle cx="360.0" cy="55.0" r="3" fill="#00ffff" class="dot" style="animation-delay: -1.8s" /><circle cx="360.0" cy="95.0" r="3" fill="#9d4edd" class="dot" style="animation-delay: -2.8s; animation-direction: reverse;" /><circle cx="380.0" cy="55.0" r="3" fill="#00ffff" class="dot" style="animation-delay: -1.9000000000000001s" /><circle cx="380.0" cy="95.0" r="3" fill="#9d4edd" class="dot" style="animation-delay: -2.9000000000000004s; animation-direction: reverse;" /><circle cx="400.0" cy="55.0" r="3" fill="#00ffff" class="dot" style="animation-delay: -2.0s" /><circle cx="400.0" cy="95.0" r="3" fill="#9d4edd" class="dot" style="animation-delay: -3.0s; animation-direction: reverse;" /><circle cx="420.0" cy="55.0" r="3" fill="#00ffff" class="dot" style="animation-delay: -2.1s" /><circle cx="420.0" cy="95.0" r="3" fill="#9d4edd" class="dot" style="animation-delay: -3.1s; animation-direction: reverse;" /><circle cx="440.0" cy="55.0" r="3" fill="#00ffff" class="dot" style="animation-delay: -2.2s" /><circle cx="440.0" cy="95.0" r="3" fill="#9d4edd" class="dot" style="animation-delay: -3.2s; animation-direction: reverse;" /><circle cx="460.0" cy="55.0" r="3" fill="#00ffff" class="dot" style="animation-delay: -2.3000000000000003s" /><circle cx="460.0" cy="95.0" r="3" fill="#9d4edd" class="dot" style="animation-delay: -3.3000000000000003s; animation-direction: reverse;" /><circle cx="480.0" cy="55.0" r="3" fill="#00ffff" class="dot" style="animation-delay: -2.4000000000000004s" /><circle cx="480.0" cy="95.0" r="3" fill="#9d4edd" class="dot" style="animation-delay: -3.4000000000000004s; animation-direction: reverse;" /><circle cx="500.0" cy="55.0" r="3" fill="#00ffff" class="dot" style="animation-delay: -2.5s" /><circle cx="500.0" cy="95.0" r="3" fill="#9d4edd" class="dot" style="animation-delay: -3.5s; animation-direction: reverse;" /><circle cx="520.0" cy="55.0" r="3" fill="#00ffff" class="dot" style="animation-delay: -2.6s" /><circle cx="520.0" cy="95.0" r="3" fill="#9d4edd" class="dot" style="animation-delay: -3.6s; animation-direction: reverse;" /><circle cx="540.0" cy="55.0" r="3" fill="#00ffff" class="dot" style="animation-delay: -2.7s" /><circle cx="540.0" cy="95.0" r="3" fill="#9d4edd" class="dot" style="animation-delay: -3.7s; animation-direction: reverse;" /><circle cx="560.0" cy="55.0" r="3" fill="#00ffff" class="dot" style="animation-delay: -2.8000000000000003s" /><circle cx="560.0" cy="95.0" r="3" fill="#9d4edd" class="dot" style="animation-delay: -3.8000000000000003s; animation-direction: reverse;" /><circle cx="580.0" cy="55.0" r="3" fill="#00ffff" class="dot" style="animation-delay: -2.9000000000000004s" /><circle cx="580.0" cy="95.0" r="3" fill="#9d4edd" class="dot" style="animation-delay: -3.9000000000000004s; animation-direction: reverse;" /><circle cx="600.0" cy="55.0" r="3" fill="#00ffff" class="dot" style="animation-delay: -3.0s" /><circle cx="600.0" cy="95.0" r="3" fill="#9d4edd" class="dot" style="animation-delay: -4.0s; animation-direction: reverse;" /><circle cx="620.0" cy="55.0" r="3" fill="#00ffff" class="dot" style="animation-delay: -3.1s" /><circle cx="620.0" cy="95.0" r="3" fill="#9d4edd" class="dot" style="animation-delay: -4.1s; animation-direction: reverse;" /><circle cx="640.0" cy="55.0" r="3" fill="#00ffff" class="dot" style="animation-delay: -3.2s" /><circle cx="640.0" cy="95.0" r="3" fill="#9d4edd" class="dot" style="animation-delay: -4.2s; animation-direction: reverse;" /><circle cx="660.0" cy="55.0" r="3" fill="#00ffff" class="dot" style="animation-delay: -3.3000000000000003s" /><circle cx="660.0" cy="95.0" r="3" fill="#9d4edd" class="dot" style="animation-delay: -4.300000000000001s; animation-direction: reverse;" /><circle cx="680.0" cy="55.0" r="3" fill="#00ffff" class="dot" style="animation-delay: -3.4000000000000004s" /><circle cx="680.0" cy="95.0" r="3" fill="#9d4edd" class="dot" style="animation-delay: -4.4s; animation-direction: reverse;" /><circle cx="700.0" cy="55.0" r="3" fill="#00ffff" class="dot" style="animation-delay: -3.5s" /><circle cx="700.0" cy="95.0" r="3" fill="#9d4edd" class="dot" style="animation-delay: -4.5s; animation-direction: reverse;" /><circle cx="720.0" cy="55.0" r="3" fill="#00ffff" class="dot" style="animation-delay: -3.6s" /><circle cx="720.0" cy="95.0" r="3" fill="#9d4edd" class="dot" style="animation-delay: -4.6s; animation-direction: reverse;" /><circle cx="740.0" cy="55.0" r="3" fill="#00ffff" class="dot" style="animation-delay: -3.7s" /><circle cx="740.0" cy="95.0" r="3" fill="#9d4edd" class="dot" style="animation-delay: -4.7s; animation-direction: reverse;" /><circle cx="760.0" cy="55.0" r="3" fill="#00ffff" class="dot" style="animation-delay: -3.8000000000000003s" /><circle cx="760.0" cy="95.0" r="3" fill="#9d4edd" class="dot" style="animation-delay: -4.800000000000001s; animation-direction: reverse;" /><circle cx="780.0" cy="55.0" r="3" fill="#00ffff" class="dot" style="animation-delay: -3.9000000000000004s" /><circle cx="780.0" cy="95.0" r="3" fill="#9d4edd" class="dot" style="animation-delay: -4.9s; animation-direction: reverse;" /></svg>